<?xml version="1.0" encoding="UTF-8"?>
<svg version="1.1" xmlns="http://www.w3.org/2000/svg" width="84" height="84">
<path d="M0 0 C2.4375 1.875 2.4375 1.875 4 4 C4 4.66 4 5.32 4 6 C5.918125 6.185625 5.918125 6.185625 7.875 6.375 C11.75 6.75 11.75 6.75 14 9 C16.24368425 9.26421764 18.45295673 9.31419471 20.7109375 9.36328125 C24.20429365 10.3349827 25.1076416 11.93087267 27 15 C27.54106323 18.16005464 27.46642637 21.25897133 27.390625 24.45703125 C27.38496521 25.35999435 27.37930542 26.26295746 27.37347412 27.19328308 C27.35114895 30.06690303 27.30096018 32.93925928 27.25 35.8125 C27.22992999 37.7649559 27.2116801 39.71743142 27.1953125 41.66992188 C27.15129682 46.44709878 27.08229626 51.2233354 27 56 C28.39895508 56.21039917 28.39895508 56.21039917 29.82617188 56.42504883 C37.91868393 57.89103851 44.66517796 62.94425606 50 69 C46.83322417 76.13293196 40.04038503 80.16932973 33 83 C29.69424199 84.00849641 26.64234622 84.14968944 23.19335938 84.19287109 C21.44134216 84.21696548 21.44134216 84.21696548 19.65393066 84.24154663 C14.33943277 84.2860285 9.02507979 84.3274559 3.71044922 84.35009766 C0.9031537 84.36346534 -1.90341977 84.39137763 -4.71044922 84.43212891 C-8.75500777 84.49083357 -12.79878793 84.50874079 -16.84375 84.5234375 C-18.10110962 84.54610687 -19.35846924 84.56877625 -20.65393066 84.59213257 C-21.82194214 84.58928253 -22.98995361 84.5864325 -24.19335938 84.58349609 C-25.22054077 84.59158295 -26.24772217 84.5996698 -27.30603027 84.60800171 C-30 84 -30 84 -32.33056641 81.86123657 C-34.29433283 78.49554396 -34.50646703 76.51491265 -34.51757812 72.63671875 C-34.53018677 71.37190674 -34.54279541 70.10709473 -34.55578613 68.80395508 C-34.54862607 67.43179769 -34.54042201 66.05964541 -34.53125 64.6875 C-34.53394673 63.27172581 -34.53783066 61.85595342 -34.54284668 60.44018555 C-34.54873336 57.47784737 -34.54020642 54.51599275 -34.52148438 51.55371094 C-34.49869431 47.7638449 -34.51182199 43.97511198 -34.53577423 40.18528748 C-34.55025529 37.26321942 -34.54561587 34.34141831 -34.53526306 31.41934204 C-34.5326021 30.02234766 -34.53584335 28.62532874 -34.54518127 27.22836304 C-34.55538279 25.27334074 -34.53706662 23.31823303 -34.51757812 21.36328125 C-34.51439575 20.25251221 -34.51121338 19.14174316 -34.50793457 17.99731445 C-33.88479965 14.32020445 -32.59134181 12.63539026 -30 10 C-27.81640625 9.3984375 -27.81640625 9.3984375 -25.5625 9.375 C-21.54857323 9.1516391 -19.38171294 8.2544753 -16 6 C-15.113125 5.855625 -14.22625 5.71125 -13.3125 5.5625 C-12.549375 5.376875 -11.78625 5.19125 -11 5 C-9.77472052 3.04978917 -9.77472052 3.04978917 -9 1 C-5.90826248 -0.54586876 -3.40570448 -0.29359521 0 0 Z M-5 6 C-5 6.99 -5 7.98 -5 9 C-4.01 9 -3.02 9 -2 9 C-2 8.01 -2 7.02 -2 6 C-2.99 6 -3.98 6 -5 6 Z M-28.67495728 14.13769531 C-30.56174135 16.78950929 -30.38106656 18.7469356 -30.38818359 21.984375 C-30.39764008 23.21575195 -30.40709656 24.44712891 -30.4168396 25.71582031 C-30.41146989 27.06055014 -30.40531694 28.40527704 -30.3984375 29.75 C-30.40045847 31.1285823 -30.4033701 32.50716355 -30.40713501 33.88574219 C-30.41155735 36.77419214 -30.40513058 39.66236367 -30.39111328 42.55078125 C-30.37402099 46.25329754 -30.38386272 49.95516146 -30.40183067 53.65765381 C-30.41267121 56.50411902 -30.40922103 59.35042955 -30.4014473 62.19689941 C-30.39944601 63.56205319 -30.40190208 64.92722102 -30.40888596 66.2923584 C-30.4165039 68.2001112 -30.40283406 70.10791324 -30.38818359 72.015625 C-30.38579681 73.10133789 -30.38341003 74.18705078 -30.38095093 75.30566406 C-30.20725081 78.00158241 -30.20725081 78.00158241 -28.7035675 79.85273743 C-25.73818697 81.84976431 -22.28210428 81.3621687 -18.83203125 81.29296875 C-17.63981209 81.28660149 -17.63981209 81.28660149 -16.42350769 81.28010559 C-13.88615979 81.2633193 -11.34960762 81.22566824 -8.8125 81.1875 C-7.09180835 81.17245305 -5.37110424 81.15876466 -3.65039062 81.14648438 C0.56671262 81.11341607 4.78322142 81.06163495 9 81 C8.21665283 80.37512695 7.43330566 79.75025391 6.6262207 79.10644531 C4.44428361 77.35635205 2.30494104 75.57681188 0.1875 73.75 C-0.41707031 73.22921875 -1.02164063 72.7084375 -1.64453125 72.171875 C-2.09183594 71.78515625 -2.53914063 71.3984375 -3 71 C-0.01902165 64.04937712 7.01214407 60.72612827 13.62890625 57.76171875 C16.71045458 56.771765 19.79771853 56.4322112 23 56 C23.07401964 50.19761976 23.12853989 44.39551278 23.16479492 38.59277344 C23.17990462 36.61778987 23.20039328 34.64283996 23.22631836 32.66796875 C23.26260619 29.83324894 23.27970416 26.99897174 23.29296875 24.1640625 C23.30845261 23.27756012 23.32393646 22.39105774 23.33988953 21.47769165 C23.34022942 20.246642 23.34022942 20.246642 23.34057617 18.99072266 C23.34723801 18.26680328 23.35389984 17.54288391 23.36076355 16.79702759 C23.13589586 14.58028018 23.13589586 14.58028018 20 13 C17.58582128 12.41597867 17.58582128 12.41597867 15 13 C14.401875 13.825 13.80375 14.65 13.1875 15.5 C10.35257158 18.45871292 7.6996121 18.42327291 3.7109375 18.55859375 C1.26533539 18.54400502 -1.18022393 18.50271108 -3.625 18.4375 C-4.86507813 18.43169922 -6.10515625 18.42589844 -7.3828125 18.41992188 C-16.55709301 18.29527132 -16.55709301 18.29527132 -20 16 C-20.33 15.01 -20.66 14.02 -21 13 C-25.05665049 12.61794784 -25.05665049 12.61794784 -28.67495728 14.13769531 Z M16 62 C13.70294908 64.45546822 12.1938179 66.60818678 12 70 C13.49251918 74.47755755 14.72869572 77.73872127 19 80 C22.39886107 81.25221197 23.69461089 81.11604786 27.125 79.8125 C30.79744843 77.49726077 32.38357438 75.67315526 33.875 71.625 C34.07666323 67.39007211 32.1117388 64.53525834 29.6875 61.1875 C24.81889256 57.76144291 20.6953041 58.97413736 16 62 Z M36 64 C36 67.96 36 71.92 36 76 C40.9287661 74.04140073 40.9287661 74.04140073 45 71 C45 70.34 45 69.68 45 69 C43.51363242 67.6393991 43.51363242 67.6393991 41.625 66.375 C40.99851562 65.92898437 40.37203125 65.48296875 39.7265625 65.0234375 C38.04777357 63.83003031 38.04777357 63.83003031 36 64 Z " fill="#FBEA99" transform="translate(34,0)"/>
<path d="M0 0 C0.7734375 -0.01675781 1.546875 -0.03351562 2.34375 -0.05078125 C4.5 0.3125 4.5 0.3125 6.26171875 1.55078125 C7.83087729 3.7832434 7.8711921 5.1036337 7.8125 7.8125 C7.80863281 8.5859375 7.80476563 9.359375 7.80078125 10.15625 C7.5 12.3125 7.5 12.3125 5.5 15.3125 C2.96875 15.640625 2.96875 15.640625 0 15.5625 C-1.46953125 15.53929687 -1.46953125 15.53929687 -2.96875 15.515625 C-5.5 15.3125 -5.5 15.3125 -7.5 14.3125 C-7.58082094 12.35483719 -7.63910778 10.39623272 -7.6875 8.4375 C-7.72230469 7.34695312 -7.75710937 6.25640625 -7.79296875 5.1328125 C-7.69628906 4.20210937 -7.59960938 3.27140625 -7.5 2.3125 C-4.40219052 0.24729368 -3.5459519 0.01772976 0 0 Z M-0.5625 8.3125 C-1.201875 8.9725 -1.84125 9.6325 -2.5 10.3125 C-1.51 10.3125 -0.52 10.3125 0.5 10.3125 C1.16 8.9925 1.82 7.6725 2.5 6.3125 C1.14082319 6.19647569 1.14082319 6.19647569 -0.5625 8.3125 Z " fill="#FBEA99" transform="translate(15.5,20.6875)"/>
<path d="M0 0 C0.9796875 -0.01675781 1.959375 -0.03351562 2.96875 -0.05078125 C4.22171875 0.12904297 4.22171875 0.12904297 5.5 0.3125 C7.56520632 3.41030948 7.79477024 4.2665481 7.8125 7.8125 C7.82925781 8.5859375 7.84601562 9.359375 7.86328125 10.15625 C7.5 12.3125 7.5 12.3125 6.296875 14.07421875 C3.90643862 15.72154121 2.31906075 15.68016979 -0.5625 15.625 C-1.44035156 15.62113281 -2.31820313 15.61726563 -3.22265625 15.61328125 C-5.5 15.3125 -5.5 15.3125 -7.5 13.3125 C-7.765625 10.78125 -7.765625 10.78125 -7.75 7.8125 C-7.75515625 6.8328125 -7.7603125 5.853125 -7.765625 4.84375 C-7.2379377 -0.18479953 -4.35772621 0.01720155 0 0 Z M-2.5 7.3125 C-2.5 8.3025 -2.5 9.2925 -2.5 10.3125 C0.66115776 8.94266497 1.4927092 8.3234362 3.5 5.3125 C1.03721199 5.3125 -0.35224119 6.16702863 -2.5 7.3125 Z " fill="#FBEA99" transform="translate(15.5,57.6875)"/>
<path d="M0 0 C1.08152344 -0.02578125 2.16304687 -0.0515625 3.27734375 -0.078125 C4.19644531 0.03015625 5.11554687 0.1384375 6.0625 0.25 C8.07946222 3.27544334 8.32061096 3.86067382 8.25 7.25 C8.24033203 8.2709375 8.24033203 8.2709375 8.23046875 9.3125 C8.0625 11.25 8.0625 11.25 7.0625 14.25 C4.91673363 14.27685938 2.77087355 14.29633088 0.625 14.3125 C-0.56996094 14.32410156 -1.76492188 14.33570313 -2.99609375 14.34765625 C-5.9375 14.25 -5.9375 14.25 -6.9375 13.25 C-7.03623816 11.25200428 -7.06721799 9.25042842 -7.0625 7.25 C-7.06507813 6.156875 -7.06765625 5.06375 -7.0703125 3.9375 C-6.8288685 -0.94819042 -4.3404225 0.06193231 0 0 Z M-2.9375 7.25 C-2.6075 7.91 -2.2775 8.57 -1.9375 9.25 C-1.2775 8.92 -0.6175 8.59 0.0625 8.25 C-0.9275 7.92 -1.9175 7.59 -2.9375 7.25 Z " fill="#FBEA99" transform="translate(14.9375,39.75)"/>
<path d="M0 0 C0.556875 0.391875 1.11375 0.78375 1.6875 1.1875 C1.3575 2.1775 1.0275 3.1675 0.6875 4.1875 C2.0075 3.8575 3.3275 3.5275 4.6875 3.1875 C5.81018565 5.94318295 5.72659704 7.07281535 4.75 9.9375 C2.6875 12.1875 2.6875 12.1875 0.7734375 12.57421875 C-1.375 12.625 -1.375 12.625 -5.3125 12.1875 C-7.3125 10.1875 -7.3125 10.1875 -7.75 6.25 C-7.69921875 4.10546875 -7.69921875 4.10546875 -7.3125 2.1875 C-4.67737494 -0.30122922 -3.50979442 -1.23317101 0 0 Z " fill="#FBEA99" transform="translate(58.3125,63.8125)"/>
<path d="M0 0 C7.59 0 15.18 0 23 0 C23 1.32 23 2.64 23 4 C15.41 4 7.82 4 0 4 C0 2.68 0 1.36 0 0 Z " fill="#FBEA99" transform="translate(29,24)"/>
<path d="M0 0 C6.93 0 13.86 0 21 0 C21.33 1.32 21.66 2.64 22 4 C14.41 4 6.82 4 -1 4 C-0.67 2.68 -0.34 1.36 0 0 Z " fill="#FBEA99" transform="translate(30,42)"/>
<path d="M0 0 C4.29 0 8.58 0 13 0 C13 1.32 13 2.64 13 4 C9.04 4 5.08 4 1 4 C0.67 2.68 0.34 1.36 0 0 Z " fill="#FBEA99" transform="translate(29,48)"/>
<path d="M0 0 C4.62 0 9.24 0 14 0 C14 0.99 14 1.98 14 3 C9.38 3 4.76 3 0 3 C0 2.01 0 1.02 0 0 Z " fill="#FBEA99" transform="translate(29,30)"/>
</svg>
