<?xml version="1.0" encoding="UTF-8"?>
<svg version="1.1" xmlns="http://www.w3.org/2000/svg" width="98" height="91">
<path d="M0 0 C6.18835919 0.82879811 12.13335106 2.94316062 18 5 C15.63196128 14.18057256 12.74908788 23.17786934 9.8125 32.1875 C9.34416694 33.63078343 8.8760664 35.07414234 8.40820312 36.51757812 C7.27480931 40.01259117 6.13829151 43.50657857 5 47 C0.28901003 46.37170502 -3.94507007 45.50227896 -8.4375 43.9375 C-9.48808594 43.57527344 -10.53867187 43.21304688 -11.62109375 42.83984375 C-12.40613281 42.56269531 -13.19117188 42.28554688 -14 42 C-11.64659259 33.97789793 -9.11802169 26.01328586 -6.55615234 18.0559082 C-5.86655654 15.91124055 -5.1813338 13.76520337 -4.49609375 11.61914062 C-4.05755902 10.25512235 -3.61876673 8.89118685 -3.1796875 7.52734375 C-2.78507324 6.29749756 -2.39045898 5.06765137 -1.98388672 3.80053711 C-1 1 -1 1 0 0 Z M1 10 C1.33 11.32 1.66 12.64 2 14 C2.33 12.68 2.66 11.36 3 10 C2.34 10 1.68 10 1 10 Z M9 12 C9.33 12.99 9.66 13.98 10 15 C10.33 14.01 10.66 13.02 11 12 C10.34 12 9.68 12 9 12 Z M0 14 C1 17 1 17 1 17 Z M8 15 C9 18 9 18 9 18 Z M-1 17 C0 20 0 20 0 20 Z M7 18 C5.04968392 22.94749352 5.04968392 22.94749352 6 28 C7.95031608 23.05250648 7.95031608 23.05250648 7 18 Z M-2 20 C-3.95031608 24.94749352 -3.95031608 24.94749352 -3 30 C-1.04968392 25.05250648 -1.04968392 25.05250648 -2 20 Z M4 28 C5 31 5 31 5 31 Z M-5 30 C-4 33 -4 33 -4 33 Z M3 31 C4 34 4 34 4 34 Z M-6 33 C-5 35 -5 35 -5 35 Z M2 34 C1.67 34.99 1.34 35.98 1 37 C1.66 37 2.32 37 3 37 C2.67 36.01 2.34 35.02 2 34 Z " fill="#202020" transform="translate(62,13)"/>
<path d="M0 0 C17.16 0 34.32 0 52 0 C52.495 1.485 52.495 1.485 53 3 C36.5 3 20 3 3 3 C3 21.81 3 40.62 3 60 C33.36 60 63.72 60 95 60 C95 41.19 95 22.38 95 3 C89.72 3 84.44 3 79 3 C79.33 2.01 79.66 1.02 80 0 C85.94 0 91.88 0 98 0 C98 20.79 98 41.58 98 63 C65.66 63 33.32 63 0 63 C0 42.21 0 21.42 0 0 Z " fill="#000000" transform="translate(0,28)"/>
<path d="M0 0 C0.98484375 -0.00128906 1.9696875 -0.00257812 2.984375 -0.00390625 C4.02078125 -0.00003906 5.0571875 0.00382812 6.125 0.0078125 C7.67960937 0.00201172 7.67960937 0.00201172 9.265625 -0.00390625 C10.25046875 -0.00261719 11.2353125 -0.00132813 12.25 0 C13.16007812 0.00112793 14.07015625 0.00225586 15.0078125 0.00341797 C17.125 0.1328125 17.125 0.1328125 18.125 1.1328125 C18.26893457 5.46812168 18.16712061 9.79438981 18.125 14.1328125 C10.205 14.1328125 2.285 14.1328125 -5.875 14.1328125 C-5.97265625 4.07421875 -5.97265625 4.07421875 -5.875 1.1328125 C-4.22105883 -0.52112867 -2.27184587 0.00281567 0 0 Z " fill="#171717" transform="translate(18.875,43.8671875)"/>
<path d="M0 0 C5.94 0 11.88 0 18 0 C18 20.79 18 41.58 18 63 C-13.68 62.67 -45.36 62.34 -78 62 C-78 61.67 -78 61.34 -78 61 C-31.965 60.505 -31.965 60.505 15 60 C15 41.19 15 22.38 15 3 C9.72 3 4.44 3 -1 3 C-0.67 2.01 -0.34 1.02 0 0 Z " fill="#353535" transform="translate(80,28)"/>
<path d="M0 0 C7.92 0 15.84 0 24 0 C24 4.29 24 8.58 24 13 C16.08 13 8.16 13 0 13 C0 8.71 0 4.42 0 0 Z " fill="#070707" transform="translate(13,63)"/>
<path d="M0 0 C6.673578 0.36401335 11.87470585 2.36272057 18 5 C17.01 8.96 16.02 12.92 15 17 C8.54945018 15.64746536 2.28894321 13.96939767 -4 12 C-3.52494322 10.18641846 -3.04483958 8.37415821 -2.5625 6.5625 C-2.29566406 5.55316406 -2.02882812 4.54382813 -1.75390625 3.50390625 C-1 1 -1 1 0 0 Z " fill="#1B1B1B" transform="translate(66,0)"/>
<path d="M0 0 C27.06 0 54.12 0 82 0 C82 0.99 82 1.98 82 3 C54.94 3 27.88 3 0 3 C0 2.01 0 1.02 0 0 Z " fill="#333333" transform="translate(8,84)"/>
<path d="M0 0 C17.16 0 34.32 0 52 0 C52.495 1.485 52.495 1.485 53 3 C45.77358786 3.16797741 38.54703031 3.32791362 31.3203125 3.48217773 C28.86031027 3.53564898 26.40034779 3.59098217 23.94042969 3.64819336 C20.41089452 3.7299614 16.88127199 3.80509977 13.3515625 3.87890625 C12.24632233 3.90594131 11.14108215 3.93297638 10.00234985 3.96083069 C8.98144257 3.98092697 7.96053528 4.00102325 6.90869141 4.02172852 C6.00712311 4.04171402 5.10555481 4.06169952 4.17666626 4.08229065 C2 4 2 4 0 3 C0 2.01 0 1.02 0 0 Z " fill="#303030" transform="translate(0,28)"/>
<path d="M0 0 C12.54 0 25.08 0 38 0 C38 1.32 38 2.64 38 4 C25.46 4 12.92 4 0 4 C0 2.68 0 1.36 0 0 Z " fill="#434343" transform="translate(9,78)"/>
<path d="M0 0 C2.14855454 0.6155803 4.29379625 1.24273431 6.4375 1.875 C8.22994141 2.39707031 8.22994141 2.39707031 10.05859375 2.9296875 C13 4 13 4 14 6 C12.73113036 7.12721436 11.45982438 8.25168658 10.1875 9.375 C9.47980469 10.00148438 8.77210937 10.62796875 8.04296875 11.2734375 C6 13 6 13 3 15 C1.42922093 9.97350697 0.55145271 5.23880078 0 0 Z " fill="#262626" transform="translate(48,62)"/>
<path d="M0 0 C6.01077136 1.63040815 12.01663928 3.27147357 18 5 C17.67 6.65 17.34 8.3 17 10 C10.82777121 8.75971762 4.93317878 7.10396411 -1 5 C-0.67 3.35 -0.34 1.7 0 0 Z " fill="#2E2E2E" transform="translate(48,56)"/>
</svg>
