<?xml version="1.0" encoding="UTF-8"?>
<svg version="1.1" xmlns="http://www.w3.org/2000/svg" width="98" height="89">
<path d="M0 0 C0.90430756 -0.00365067 1.80861511 -0.00730133 2.74032593 -0.01106262 C5.73389375 -0.01917858 8.7269221 -0.00555031 11.72045898 0.0090332 C13.79646301 0.00955164 15.87246753 0.00903458 17.94847107 0.00752258 C22.30052004 0.00761235 26.65238394 0.01805194 31.00439453 0.03613281 C36.59238983 0.05883417 42.18011492 0.05936201 47.76814365 0.05261517 C52.05484941 0.04927949 56.34149317 0.05589747 60.62818718 0.0657444 C62.68914402 0.06960256 64.75010774 0.07074208 66.81106758 0.06915855 C69.68667965 0.06878914 72.56194051 0.08137272 75.4375 0.09765625 C76.295215 0.09517883 77.15292999 0.09270142 78.03663635 0.09014893 C83.92531084 0.14357256 83.92531084 0.14357256 86.15405273 2.37231445 C86.40802002 4.98435974 86.40802002 4.98435974 86.4128418 8.33496094 C86.41914612 9.58643417 86.42545044 10.83790741 86.4319458 12.12730408 C86.42836573 13.49934021 86.4242637 14.87137506 86.41967773 16.2434082 C86.4210246 17.6458391 86.42296531 19.04826955 86.42547607 20.45069885 C86.42842732 23.39214517 86.42413044 26.33347012 86.41479492 29.27490234 C86.40341076 33.04570162 86.4099531 36.81621589 86.42193985 40.58700466 C86.42916747 43.48405605 86.42686621 46.38103991 86.42168427 49.27809334 C86.42034972 50.66836646 86.42198869 52.0586457 86.42664337 53.44891167 C86.43172194 55.39269773 86.42260897 57.33650528 86.4128418 59.28027344 C86.41125061 60.38676743 86.40965942 61.49326141 86.40802002 62.63328552 C86.15405273 65.37231445 86.15405273 65.37231445 84.15405273 68.37231445 C81.62281924 68.77571055 79.32553312 68.97979778 76.77905273 69.05981445 C76.04114502 69.09324951 75.3032373 69.12668457 74.54296875 69.16113281 C65.41871895 69.52671052 56.28325134 69.45728114 47.15405273 69.37231445 C47.15405273 72.01231445 47.15405273 74.65231445 47.15405273 77.37231445 C47.87850586 77.3980957 48.60295898 77.42387695 49.34936523 77.45043945 C55.51623357 77.81222906 59.38157986 78.3737561 64.15405273 82.37231445 C63.19754245 84.82824494 62.62868923 86.1091994 60.28540039 87.40820312 C52.68526309 89.66194407 45.41696437 89.78542557 37.52905273 89.68481445 C36.25803711 89.68803711 34.98702148 89.69125977 33.67749023 89.69458008 C16.85502025 89.59820134 16.85502025 89.59820134 11.15405273 84.37231445 C12.09040045 82.03144517 12.71585783 80.65116576 14.87280273 79.27856445 C17.5978593 78.19600774 19.98328177 77.95594095 22.90405273 77.74731445 C24.38131836 77.63516602 24.38131836 77.63516602 25.88842773 77.52075195 C26.63608398 77.47176758 27.38374023 77.4227832 28.15405273 77.37231445 C28.15405273 74.73231445 28.15405273 72.09231445 28.15405273 69.37231445 C26.49635864 69.39588013 26.49635864 69.39588013 24.80517578 69.41992188 C20.70710532 69.47420002 16.60906666 69.50865669 12.51074219 69.53710938 C10.7365993 69.55220087 8.96249375 69.57267636 7.18847656 69.59863281 C4.63914786 69.63500086 2.09031215 69.65203684 -0.45922852 69.6652832 C-1.25307449 69.68076706 -2.04692047 69.69625092 -2.86482239 69.71220398 C-8.33449513 69.71387761 -8.33449513 69.71387761 -10.55525208 68.23078918 C-12.41174041 65.55762771 -12.22712855 63.5335148 -12.23413086 60.29614258 C-12.24358734 59.04474487 -12.25304382 57.79334717 -12.26278687 56.50402832 C-12.25741716 55.13720381 -12.25126421 53.77038219 -12.24438477 52.40356445 C-12.24640569 51.00256193 -12.24931729 49.60156044 -12.25308228 48.20056152 C-12.2575048 45.26503479 -12.25107722 42.32978199 -12.23706055 39.39428711 C-12.21996827 35.63124029 -12.2298099 31.86883534 -12.24777794 28.10581207 C-12.25861796 25.21302452 -12.25516853 22.32038918 -12.24739456 19.42759705 C-12.24539314 18.04011458 -12.24784984 16.65261831 -12.25483322 15.26515198 C-12.26245032 13.32626611 -12.2487822 11.3873318 -12.23413086 9.44848633 C-12.23174408 8.34500854 -12.2293573 7.24153076 -12.22689819 6.10461426 C-11.26506631 -0.79394637 -5.77543669 -0.05159098 0 0 Z M-8.84594727 4.37231445 C-8.94505054 6.23337668 -8.97393986 8.09821556 -8.9753418 9.96191406 C-8.97849396 11.15662827 -8.98164612 12.35134247 -8.9848938 13.58226013 C-8.98286957 14.8832515 -8.98084534 16.18424286 -8.97875977 17.5246582 C-8.97943294 18.86365273 -8.98040307 20.20264713 -8.98165894 21.54164124 C-8.98313579 24.35199138 -8.9809821 27.16230979 -8.97631836 29.97265625 C-8.97062655 33.57872264 -8.97389665 37.18471452 -8.97989082 40.79077816 C-8.98350146 43.55738386 -8.98235544 46.32397185 -8.97976303 49.09057808 C-8.9787693 51.06819329 -8.98181201 53.04580918 -8.9848938 55.02342224 C-8.98174164 56.2212886 -8.97858948 57.41915497 -8.9753418 58.65332031 C-8.9745462 59.71175644 -8.97375061 60.77019257 -8.97293091 61.86070251 C-9.01457283 64.36962982 -9.01457283 64.36962982 -7.84594727 66.37231445 C9.49283244 66.4522342 26.8267108 66.24333209 44.16333008 66 C48.16568046 65.94410848 52.16808453 65.89426008 56.17052841 65.84559727 C59.2725097 65.80681935 62.37441963 65.76371065 65.47632599 65.7193737 C66.95475355 65.69900231 68.43320479 65.68028074 69.9116745 65.66324043 C71.95444037 65.63930503 73.99712428 65.60865248 76.03979492 65.57763672 C77.2000116 65.56209244 78.36022827 65.54654816 79.55560303 65.53053284 C82.08252188 65.66478657 82.08252188 65.66478657 83.15405273 64.37231445 C83.25315834 62.50595657 83.28204535 60.63583251 83.28344727 58.7668457 C83.28817551 56.96993286 83.28817551 56.96993286 83.29299927 55.13671875 C83.29097504 53.83259033 83.28895081 52.52846191 83.28686523 51.18481445 C83.28753834 49.8434243 83.28850841 48.50203427 83.2897644 47.16064453 C83.29124109 44.34609824 83.28908777 41.53158363 83.28442383 38.71704102 C83.27872654 35.10190814 83.2820057 31.48684951 83.28799629 27.87171936 C83.2916027 25.10086504 83.29046295 22.33002843 83.2878685 19.55917358 C83.28687306 17.57541862 83.28992014 15.59166298 83.29299927 13.60791016 C83.28984711 12.40996826 83.28669495 11.21202637 83.28344727 9.9777832 C83.28265167 8.91712646 83.28185608 7.85646973 83.28103638 6.76367188 C83.42377553 4.41916503 83.42377553 4.41916503 82.15405273 3.37231445 C79.35953003 3.2717957 76.58968919 3.23615552 73.79467773 3.24291992 C72.91831665 3.2411676 72.04195557 3.23941528 71.13903809 3.23760986 C68.22735646 3.23319013 65.31573503 3.23612976 62.40405273 3.23950195 C60.39005522 3.23882895 58.37605778 3.23785895 56.36206055 3.23660278 C52.13516468 3.23512565 47.9082899 3.23728088 43.68139648 3.24194336 C38.25024741 3.24764065 32.81914775 3.24436173 27.38800049 3.2383709 C23.22745386 3.23476571 19.06691904 3.23590367 14.90637207 3.23849869 C12.90319818 3.23916808 10.90002324 3.23833913 8.89685059 3.23601913 C6.10234721 3.23349331 3.30792503 3.23733221 0.51342773 3.24291992 C-0.32297241 3.24089569 -1.15937256 3.23887146 -2.02111816 3.23678589 C-5.73652162 2.89349774 -5.73652162 2.89349774 -8.84594727 4.37231445 Z M31.15405273 69.37231445 C31.15405273 73.00231445 31.15405273 76.63231445 31.15405273 80.37231445 C36.15805867 82.87431742 37.80252593 82.33734388 43.15405273 81.37231445 C44.44017949 80.31252512 44.44017949 80.31252512 44.25170898 77.8684082 C44.24010742 76.85907227 44.22850586 75.84973633 44.21655273 74.80981445 C44.19592773 73.01543945 44.17530273 71.22106445 44.15405273 69.37231445 C39.86405273 69.37231445 35.57405273 69.37231445 31.15405273 69.37231445 Z " fill="#000000" transform="translate(11.845947265625,-0.372314453125)"/>
<path d="M0 0 C0 0.66 0 1.32 0 2 C5.28 2 10.56 2 16 2 C16 2.99 16 3.98 16 5 C11.545 5.495 11.545 5.495 7 6 C8.299375 6.639375 9.59875 7.27875 10.9375 7.9375 C14.875 9.875 14.875 9.875 16 11 C16.95115757 18.44120851 17.43268614 26.61231035 16 34 C13.17029851 37.62756828 10.44498953 38.97606491 6 40 C8.97 40.33 11.94 40.66 15 41 C15 42.32 15 43.64 15 45 C1.88750258 45.84054471 -10.89730796 46.03989619 -24 45 C-24.33 43.68 -24.66 42.36 -25 41 C-18.565 40.505 -18.565 40.505 -12 40 C-15.96 38.02 -19.92 36.04 -24 34 C-24 26.08 -24 18.16 -24 10 C-21.36 8.68 -18.72 7.36 -16 6 C-18.31 5.34 -20.62 4.68 -23 4 C-23 3.34 -23 2.68 -23 2 C-18.05 2 -13.1 2 -8 2 C-8 1.34 -8 0.68 -8 0 C-4.71023192 -1.09658936 -3.28696233 -0.79953138 0 0 Z M-19 11 C-16.08740101 13.23838626 -13.11094822 15.29617277 -10 17.25 C-9.154375 17.79140625 -8.30875 18.3328125 -7.4375 18.890625 C-5.15369988 20.15734454 -5.15369988 20.15734454 -3.078125 19.89453125 C-0.15266532 18.63526383 2.51698544 17.0713674 5.25 15.4375 C6.32765625 14.79683594 7.4053125 14.15617187 8.515625 13.49609375 C9.33546875 13.00238281 10.1553125 12.50867188 11 12 C0.38740009 4.92493339 -7.5851781 6.22071008 -19 11 Z M-21 14 C-21 19.94 -21 25.88 -21 32 C-16.05 34.31 -11.1 36.62 -6 39 C-5.67 33.72 -5.34 28.44 -5 23 C-7.083125 21.700625 -9.16625 20.40125 -11.3125 19.0625 C-11.96387939 18.65394775 -12.61525879 18.24539551 -13.28637695 17.82446289 C-15.84359775 16.24040337 -18.13569412 14.95476863 -21 14 Z M-2 23 C-3.15317778 28.21826109 -2.79939503 32.75268901 -2 38 C2.00643507 39.33547836 3.40856008 38.40385583 7.1875 36.625 C11.41734925 34.19398874 11.41734925 34.19398874 13.55517578 29.99560547 C14.07017031 24.95828109 13.60870239 20.01052243 13 15 C7.47133583 15 1.76805664 19.29448371 -2 23 Z " fill="#000000" transform="translate(67,11)"/>
<path d="M0 0 C1.61358398 -0.01836914 1.61358398 -0.01836914 3.25976562 -0.03710938 C4.28650391 -0.03904297 5.31324219 -0.04097656 6.37109375 -0.04296875 C7.79119751 -0.04913208 7.79119751 -0.04913208 9.23999023 -0.05541992 C11.5625 0.1875 11.5625 0.1875 13.5625 2.1875 C13.828125 4.28125 13.828125 4.28125 13.8125 6.6875 C13.81765625 7.4815625 13.8228125 8.275625 13.828125 9.09375 C13.5625 11.1875 13.5625 11.1875 11.5625 13.1875 C9.34765625 13.43041992 9.34765625 13.43041992 6.625 13.41796875 C5.15933594 13.41506836 5.15933594 13.41506836 3.6640625 13.41210938 C2.64054687 13.39986328 1.61703125 13.38761719 0.5625 13.375 C-0.46101563 13.37435547 -1.48453125 13.37371094 -2.5390625 13.37304688 C-10.15685497 13.32782251 -10.15685497 13.32782251 -12.4375 12.1875 C-12.46437279 10.37507948 -12.48383715 8.56254767 -12.5 6.75 C-12.51160156 5.74066406 -12.52320313 4.73132813 -12.53515625 3.69140625 C-12.3048732 -2.21305124 -4.54172713 0.00271148 0 0 Z " fill="#000000" transform="translate(22.4375,11.8125)"/>
<path d="M0 0 C3.79165074 -0.0289337 7.58327327 -0.04677601 11.375 -0.0625 C12.45523437 -0.07087891 13.53546875 -0.07925781 14.6484375 -0.08789062 C16.1953125 -0.09272461 16.1953125 -0.09272461 17.7734375 -0.09765625 C18.72653809 -0.10289307 19.67963867 -0.10812988 20.66162109 -0.11352539 C23 0 23 0 25 1 C24.67 1.99 24.34 2.98 24 4 C16.08 4 8.16 4 0 4 C0 2.68 0 1.36 0 0 Z " fill="#000000" transform="translate(11,30)"/>
<path d="M0 0 C8.25 0 16.5 0 25 0 C25.33 0.99 25.66 1.98 26 3 C17.42 3 8.84 3 0 3 C0 2.01 0 1.02 0 0 Z " fill="#000000" transform="translate(10,39)"/>
<path d="M0 0 C5.28 0 10.56 0 16 0 C15.67 0.99 15.34 1.98 15 3 C10.38 3 5.76 3 1 3 C0.67 2.01 0.34 1.02 0 0 Z " fill="#000000" transform="translate(10,48)"/>
</svg>
