<?xml version="1.0" encoding="UTF-8"?>
<svg version="1.1" xmlns="http://www.w3.org/2000/svg" width="109" height="110">
<path d="M0 0 C3.32272694 0.6451897 6.43273899 0.67916739 9.81640625 0.671875 C11.01265625 0.67445312 12.20890625 0.67703125 13.44140625 0.6796875 C16.73348668 0.64594312 16.73348668 0.64594312 19.5625 -0.0390625 C23.72597981 -0.80393054 26.82697178 1.89593127 30.19140625 4.109375 C30.72765625 4.58375 31.26390625 5.058125 31.81640625 5.546875 C31.81640625 6.206875 31.81640625 6.866875 31.81640625 7.546875 C30.42421875 8.165625 30.42421875 8.165625 29.00390625 8.796875 C25.7898324 10.56146457 24.46523112 11.33600552 22.81640625 14.546875 C21.84138279 18.80711263 21.57244423 22.32494331 22.81640625 26.546875 C9.78069158 29.75642596 -3.08706394 28.53698351 -15.18359375 22.546875 C-15.76354602 11.67813992 -15.76354602 11.67813992 -12.18359375 6.546875 C-4.70274548 -0.97588278 -4.70274548 -0.97588278 0 0 Z " fill="#000000" transform="translate(39.18359375,55.453125)"/>
<path d="M0 0 C1.68107308 1.20938901 3.35381429 2.43103628 5 3.6875 C5 1.7075 5 -0.2725 5 -2.3125 C6.32 -1.9825 7.64 -1.6525 9 -1.3125 C8.67 2.3175 8.34 5.9475 8 9.6875 C3.76358987 10.53478203 0.27587998 10.77134078 -4 10.6875 C-4 9.3675 -4 8.0475 -4 6.6875 C-2.68 6.3575 -1.36 6.0275 0 5.6875 C-13.78467899 -3.46162322 -27.39068435 -6.68758803 -43.69140625 -3.6171875 C-56.57196018 0.0021417 -67.99405443 7.3590238 -74.8125 19.125 C-75.57096645 20.6314351 -76.29993991 22.15305094 -77 23.6875 C-77.38027344 24.51507813 -77.76054688 25.34265625 -78.15234375 26.1953125 C-83.27288462 38.11287025 -83.45428005 51.19846983 -79.01171875 63.40234375 C-78.32764467 65.09635993 -77.62628789 66.78357258 -76.90234375 68.4609375 C-76.06507008 70.52693746 -75.48123893 72.51448297 -75 74.6875 C-75.99 75.1825 -75.99 75.1825 -77 75.6875 C-79.98880048 73.15313702 -81.16279579 70.40970176 -82.625 66.8125 C-83.05039063 65.78382812 -83.47578125 64.75515625 -83.9140625 63.6953125 C-88.41780768 51.22091038 -87.52398426 34.6161037 -82 22.6875 C-79.85972425 18.86932433 -77.52644856 15.25937555 -75 11.6875 C-74.34 10.6975 -73.68 9.7075 -73 8.6875 C-72.34 8.6875 -71.68 8.6875 -71 8.6875 C-70.67 7.6975 -70.34 6.7075 -70 5.6875 C-69.34 5.6875 -68.68 5.6875 -68 5.6875 C-68 5.0275 -68 4.3675 -68 3.6875 C-48.52490416 -13.021247 -21.123293 -13.94186865 0 0 Z " fill="#000000" transform="translate(86,9.3125)"/>
<path d="M0 0 C1.32 0 2.64 0 4 0 C9.07189693 9.44422186 11.55979331 18.05163648 11.4375 28.8125 C11.42775146 29.77663818 11.41800293 30.74077637 11.40795898 31.73413086 C11.01142107 47.73678796 4.69036889 59.81578642 -6.6875 70.875 C-19.68510721 81.88545353 -34.09606159 84.98404856 -50.69238281 84.1953125 C-60.205799 83.39011435 -68.21328431 79.26129439 -76 74 C-76.99 73.34 -77.98 72.68 -79 72 C-79.33 73.65 -79.66 75.3 -80 77 C-80.99 77 -81.98 77 -83 77 C-83 73.04 -83 69.08 -83 65 C-81.22625 64.814375 -79.4525 64.62875 -77.625 64.4375 C-76.12839844 64.28087891 -76.12839844 64.28087891 -74.6015625 64.12109375 C-72 64 -72 64 -70 65 C-70.33 65.99 -70.66 66.98 -71 68 C-73.0625 68.6875 -73.0625 68.6875 -75 69 C-63.39348365 78.67209696 -50.04700506 80.36488222 -35.45019531 79.28222656 C-23.47656146 77.90303956 -13.01105027 71.48388396 -4.75 62.875 C4.78002605 50.79624606 8.09801439 37.135706 7 22 C5.78347862 15.03830102 3.22701142 9.23147033 0 3 C0 2.01 0 1.02 0 0 Z " fill="#000000" transform="translate(98,26)"/>
<path d="M0 0 C3.52212101 2.34808068 6.52926027 4.66440673 7.40625 9.015625 C7.60222927 13.68646421 7.20309363 16.36634801 4.125 20 C1.18720201 23.06552834 -0.34228998 23.92196661 -4.6875 24.4375 C-9.22744391 24.41264629 -11.43982485 22.53738613 -14.65234375 19.5078125 C-17.25902441 16.5913524 -17.34031649 13.95298718 -17.27734375 10.09765625 C-16.81370299 6.59096486 -15.30716755 4.61074223 -13 2 C-8.41295213 -1.15996631 -5.35312233 -1.45994245 0 0 Z " fill="#000000" transform="translate(54,24)"/>
<path d="M0 0 C3.39549127 1.72977857 5.42059334 3.06791103 7.4375 6.3125 C8.44446036 11.12353281 7.8489899 14.68260187 5.1875 18.8125 C1.76923077 22.23076923 1.76923077 22.23076923 -1 23 C-6.03829462 22.92002707 -8.02815058 22.80642825 -11.9375 19.5625 C-15.18841268 15.52348727 -15.35215363 13.19426601 -15 8 C-12.05583481 1.18193323 -7.22167657 -0.88687256 0 0 Z M-1 8 C-1 8.66 -1 9.32 -1 10 C-1.99 10.33 -2.98 10.66 -4 11 C-4 11.66 -4 12.32 -4 13 C-5.65 12.01 -7.3 11.02 -9 10 C-8.34 11.32 -7.68 12.64 -7 14 C-3.1691947 14.44160248 -3.1691947 14.44160248 -1.515625 12.6875 C-1.09796875 12.130625 -0.6803125 11.57375 -0.25 11 C0.4925 10.01 1.235 9.02 2 8 C1.01 8 0.02 8 -1 8 Z " fill="#000000" transform="translate(77,64)"/>
</svg>
